<svg width="101" height="76" viewBox="0 0 101 76" fill="none" xmlns="http://www.w3.org/2000/svg">
<path d="M1.37859e-08 9.49658C1.37859e-08 6.97793 0.997598 4.56244 2.77333 2.78149C4.54907 1.00053 6.95748 0 9.46875 0H66.2812C68.7925 0 71.2009 1.00053 72.9767 2.78149C74.7524 4.56244 75.75 6.97793 75.75 9.49658V18.9932H82.1888C83.6074 18.9944 85.0077 19.3154 86.286 19.9324C87.5644 20.5493 88.6882 21.4465 89.5744 22.5576L98.9232 34.27C100.268 35.9552 101.001 38.0498 101 40.2085V53.814C101 56.3326 100.002 58.7481 98.2267 60.5291C96.4509 62.31 94.0425 63.3106 91.5312 63.3106H88.375C88.375 66.6688 87.0449 69.8894 84.6772 72.264C82.3096 74.6386 79.0984 75.9727 75.75 75.9727C72.4016 75.9727 69.1904 74.6386 66.8228 72.264C64.4551 69.8894 63.125 66.6688 63.125 63.3106H31.5625C31.5661 64.9983 31.2333 66.6698 30.5836 68.2267C29.9338 69.7836 28.9803 71.1945 27.7791 72.3765C26.5779 73.5584 25.1531 74.4876 23.5887 75.1094C22.0242 75.7312 20.3516 76.033 18.6692 75.9971C16.9867 75.9613 15.3284 75.5884 13.7917 74.9005C12.255 74.2126 10.871 73.2235 9.72092 71.9914C8.57086 70.7593 7.678 69.309 7.09483 67.7258C6.51167 66.1426 6.24997 64.4585 6.32513 62.7724C4.47587 62.1196 2.87423 60.9073 1.74127 59.3026C0.608308 57.698 -0.000105747 55.7802 1.37859e-08 53.814L1.37859e-08 9.49658ZM8.16838 56.7009C9.30968 54.8269 10.9175 53.283 12.8339 52.2208C14.7503 51.1587 16.9093 50.615 19.0986 50.6431C21.288 50.6712 23.4324 51.2702 25.321 52.3811C27.2097 53.4921 28.7776 55.0768 29.8707 56.9795H64.8167C65.9271 55.0566 67.5202 53.4588 69.4375 52.3452V9.49658C69.4375 8.65703 69.105 7.85187 68.5131 7.25822C67.9211 6.66457 67.1183 6.33106 66.2812 6.33106H9.46875C8.63166 6.33106 7.82886 6.66457 7.23694 7.25822C6.64503 7.85187 6.3125 8.65703 6.3125 9.49658V53.814C6.312 54.4233 6.48685 55.0198 6.81605 55.5319C7.14525 56.044 7.61481 56.4499 8.16838 56.7009ZM75.75 50.6485C77.9661 50.6485 80.1431 51.2336 82.0623 52.3449C83.9815 53.4563 85.5752 55.0547 86.6832 56.9795H91.5312C92.3683 56.9795 93.1711 56.646 93.7631 56.0524C94.355 55.4587 94.6875 54.6535 94.6875 53.814V40.2022C94.6862 39.4838 94.4414 38.7873 93.9931 38.2269L84.6506 26.5145C84.3554 26.1437 83.9809 25.8443 83.5548 25.6382C83.1287 25.4322 82.6618 25.3249 82.1888 25.3242H75.75V50.6485ZM18.9375 56.9795C17.2633 56.9795 15.6577 57.6465 14.4739 58.8338C13.2901 60.0211 12.625 61.6315 12.625 63.3106C12.625 64.9897 13.2901 66.6 14.4739 67.7873C15.6577 68.9746 17.2633 69.6416 18.9375 69.6416C20.6117 69.6416 22.2173 68.9746 23.4011 67.7873C24.5849 66.6 25.25 64.9897 25.25 63.3106C25.25 61.6315 24.5849 60.0211 23.4011 58.8338C22.2173 57.6465 20.6117 56.9795 18.9375 56.9795ZM75.75 56.9795C74.0758 56.9795 72.4702 57.6465 71.2864 58.8338C70.1026 60.0211 69.4375 61.6315 69.4375 63.3106C69.4375 64.9897 70.1026 66.6 71.2864 67.7873C72.4702 68.9746 74.0758 69.6416 75.75 69.6416C77.4242 69.6416 79.0298 68.9746 80.2136 67.7873C81.3974 66.6 82.0625 64.9897 82.0625 63.3106C82.0625 61.6315 81.3974 60.0211 80.2136 58.8338C79.0298 57.6465 77.4242 56.9795 75.75 56.9795Z" fill="#FCB733"/>
</svg>
