<svg width="102" height="102" viewBox="0 0 102 102" fill="none" xmlns="http://www.w3.org/2000/svg">
<path d="M94.1309 41.0391H68.6309C68.1926 41.0391 67.834 41.3977 67.834 41.8359V46.6172C67.834 47.0555 68.1926 47.4141 68.6309 47.4141H94.1309C94.5691 47.4141 94.9277 47.0555 94.9277 46.6172V41.8359C94.9277 41.3977 94.5691 41.0391 94.1309 41.0391ZM80.7832 54.5859H68.6309C68.1926 54.5859 67.834 54.9445 67.834 55.3828V60.1641C67.834 60.6023 68.1926 60.9609 68.6309 60.9609H80.7832C81.2215 60.9609 81.5801 60.6023 81.5801 60.1641V55.3828C81.5801 54.9445 81.2215 54.5859 80.7832 54.5859ZM47.5435 32.124H43.2305C42.6129 32.124 42.1148 32.6221 42.1148 33.2396V57.9428C42.1148 58.3014 42.2842 58.6301 42.573 58.8393L57.4049 69.6568C57.9029 70.0154 58.6002 69.9158 58.9588 69.4178L61.5187 65.9215V65.9115C61.8773 65.4135 61.7678 64.7162 61.2697 64.3576L48.6492 55.2334V33.2396C48.6592 32.6221 48.1512 32.124 47.5435 32.124Z" fill="#FCB733"/>
<path d="M80.1656 67.1267H74.4082C73.8504 67.1267 73.3225 67.4155 73.0236 67.8937C71.7586 69.8958 70.2844 71.7485 68.591 73.4419C65.6725 76.3605 62.2758 78.6515 58.5006 80.2452C54.5859 81.8987 50.4322 82.7355 46.149 82.7355C41.8559 82.7355 37.7022 81.8987 33.7975 80.2452C30.0223 78.6515 26.6256 76.3605 23.707 73.4419C20.7885 70.5233 18.4975 67.1267 16.9037 63.3515C15.2502 59.4468 14.4135 55.2931 14.4135 50.9999C14.4135 46.7067 15.2502 42.563 16.9037 38.6484C18.4975 34.8732 20.7885 31.4765 23.707 28.5579C26.6256 25.6394 30.0223 23.3484 33.7975 21.7546C37.7022 20.1011 41.8658 19.2644 46.149 19.2644C50.4422 19.2644 54.5959 20.1011 58.5006 21.7546C62.2758 23.3484 65.6725 25.6394 68.591 28.5579C70.2844 30.2513 71.7586 32.104 73.0236 34.1062C73.3225 34.5843 73.8504 34.8732 74.4082 34.8732H80.1656C80.8529 34.8732 81.2912 34.156 80.9824 33.5484C74.4879 20.629 61.3195 12.2319 46.6172 12.0626C25.0916 11.7937 7.21173 29.4146 7.17188 50.9202C7.13204 72.4657 24.5936 89.9472 46.1391 89.9472C61.0307 89.9472 74.4182 81.5202 80.9824 68.4515C81.2912 67.8439 80.843 67.1267 80.1656 67.1267Z" fill="#FCB733"/>
</svg>
