<svg width="64" height="64" viewBox="0 0 64 64" fill="none" xmlns="http://www.w3.org/2000/svg">
<path d="M17.3312 15.0719C20.9842 11.8957 25.5713 9.99415 30.4 9.6543V14.3999C30.4 14.8242 30.5686 15.2312 30.8687 15.5313C31.1687 15.8313 31.5757 15.9999 32 15.9999C32.4244 15.9999 32.8313 15.8313 33.1314 15.5313C33.4315 15.2312 33.6 14.8242 33.6 14.3999V9.6575C38.6986 10.023 43.519 12.1207 47.2616 15.6025C51.0041 19.0843 53.4439 23.7409 54.176 28.7999H48C47.5757 28.7999 47.1687 28.9685 46.8686 29.2685C46.5686 29.5686 46.4 29.9756 46.4 30.3999C46.4 30.8243 46.5686 31.2312 46.8686 31.5313C47.1687 31.8313 47.5757 31.9999 48 31.9999H54.4C54.3962 35.0919 53.7674 38.1513 52.5516 40.9943C51.3358 43.8373 49.5579 46.4052 47.3248 48.5439C47.0307 48.8383 46.8629 49.2358 46.857 49.6519C46.8511 50.068 47.0075 50.47 47.2931 50.7727C47.5787 51.0754 47.971 51.2549 48.3868 51.2731C48.8025 51.2913 49.209 51.1468 49.52 50.8703C52.0703 48.4328 54.1009 45.5043 55.4895 42.2613C56.8782 39.0183 57.5961 35.5277 57.6 31.9999C57.6 25.2104 54.9029 18.6989 50.102 13.898C45.301 9.09704 38.7896 6.3999 32 6.3999C25.2105 6.3999 18.699 9.09704 13.8981 13.898C9.09716 18.6989 6.40002 25.2104 6.40002 31.9999C6.40002 39.3439 9.66402 46.2079 14.6016 50.8703C14.7546 51.0144 14.9344 51.127 15.1309 51.2017C15.3274 51.2763 15.5367 51.3115 15.7467 51.3053C15.9568 51.299 16.1636 51.2515 16.3553 51.1653C16.547 51.0791 16.7199 50.9561 16.864 50.8031C17.0082 50.6501 17.1208 50.4703 17.1954 50.2738C17.27 50.0773 17.3052 49.8681 17.299 49.658C17.2927 49.4479 17.2452 49.2411 17.159 49.0494C17.0729 48.8577 16.9498 48.6848 16.7968 48.5407C12.464 44.4479 9.60002 38.4095 9.60002 31.9999H16C16.4244 31.9999 16.8313 31.8313 17.1314 31.5313C17.4315 31.2312 17.6 30.8243 17.6 30.3999C17.6 29.9756 17.4315 29.5686 17.1314 29.2685C16.8313 28.9685 16.4244 28.7999 16 28.7999H9.82402C10.4345 24.5529 12.2566 20.572 15.072 17.3343L19.6672 21.9327C19.9677 22.2331 20.3751 22.4019 20.8 22.4019C21.2249 22.4019 21.6324 22.2331 21.9328 21.9327C22.2333 21.6323 22.402 21.2248 22.402 20.7999C22.402 20.375 22.2333 19.9675 21.9328 19.6671L17.3312 15.0719ZM43.0368 18.5823C43.3276 18.3514 43.6897 18.2287 44.061 18.2355C44.4322 18.2422 44.7896 18.3779 45.0718 18.6193C45.354 18.8606 45.5435 19.1926 45.6078 19.5584C45.672 19.9241 45.6071 20.3008 45.424 20.6239L45.072 21.2511C43.7852 23.5234 42.4902 25.7912 41.1872 28.0543C40.1455 29.8653 39.0895 31.668 38.0192 33.4623C37.6181 34.1373 37.2085 34.8073 36.7904 35.4719C36.4704 35.9743 36.1568 36.4511 35.9264 36.7199C35.0998 37.6883 33.9223 38.2886 32.6531 38.3888C31.3839 38.489 30.1268 38.0809 29.1584 37.2543C28.1901 36.4277 27.5897 35.2502 27.4895 33.981C27.3893 32.7117 27.7974 31.4547 28.624 30.4863C28.8544 30.2175 29.2736 29.8303 29.7216 29.4367C30.2016 29.0111 30.8192 28.4895 31.5136 27.9039C32.9088 26.7391 34.656 25.3119 36.3584 23.9359C38.389 22.2933 40.4263 20.6592 42.4704 19.0335L43.0368 18.5855V18.5823Z" fill="#FCB733"/>
</svg>
