<svg width="58" height="58" viewBox="0 0 58 58" fill="none" xmlns="http://www.w3.org/2000/svg">
<path d="M20.5417 45.9167L26.5833 36.25H22.9583V29L16.9167 38.6667H20.5417V45.9167ZM14.5 24.1667H29V12.0833H14.5V24.1667ZM14.5 45.9167H29V29H14.5V45.9167ZM9.66666 50.75V12.0833C9.66666 10.7542 10.1403 9.61592 11.0877 8.66858C12.0334 7.72286 13.1708 7.25 14.5 7.25H29C30.3292 7.25 31.4674 7.72286 32.4147 8.66858C33.3605 9.61592 33.8333 10.7542 33.8333 12.0833V29H36.25C37.5792 29 38.7174 29.4729 39.6647 30.4186C40.6105 31.3659 41.0833 32.5042 41.0833 33.8333V44.7083C41.0833 45.3931 41.3653 45.9666 41.9292 46.429C42.493 46.893 43.1174 47.125 43.8021 47.125C44.5271 47.125 45.1619 46.893 45.7064 46.429C46.2494 45.9666 46.5208 45.3931 46.5208 44.7083V21.75H45.9167C45.2319 21.75 44.6584 21.518 44.196 21.054C43.732 20.5916 43.5 20.0181 43.5 19.3333V14.5H44.7083V10.875H47.125V14.5H49.5417V10.875H51.9583V14.5H53.1667V19.3333C53.1667 20.0181 52.9347 20.5916 52.4707 21.054C52.0083 21.518 51.4347 21.75 50.75 21.75H50.1458V44.7083C50.1458 46.4 49.532 47.8299 48.3043 48.9979C47.0751 50.166 45.5743 50.75 43.8021 50.75C42.0701 50.75 40.5799 50.166 39.3312 48.9979C38.0826 47.8299 37.4583 46.4 37.4583 44.7083V32.625H33.8333V50.75H9.66666ZM29 45.9167H14.5H29Z" fill="#FCB733"/>
</svg>
