<svg width="60" height="60" viewBox="0 0 60 60" fill="none" xmlns="http://www.w3.org/2000/svg">
<path d="M55.3711 24.1406H40.3711C40.1133 24.1406 39.9023 24.3516 39.9023 24.6094V27.4219C39.9023 27.6797 40.1133 27.8906 40.3711 27.8906H55.3711C55.6289 27.8906 55.8398 27.6797 55.8398 27.4219V24.6094C55.8398 24.3516 55.6289 24.1406 55.3711 24.1406ZM47.5195 32.1094H40.3711C40.1133 32.1094 39.9023 32.3203 39.9023 32.5781V35.3906C39.9023 35.6484 40.1133 35.8594 40.3711 35.8594H47.5195C47.7773 35.8594 47.9883 35.6484 47.9883 35.3906V32.5781C47.9883 32.3203 47.7773 32.1094 47.5195 32.1094ZM27.9668 18.8965H25.4297C25.0664 18.8965 24.7734 19.1895 24.7734 19.5527V34.084C24.7734 34.2949 24.873 34.4883 25.043 34.6113L33.7676 40.9746C34.0605 41.1855 34.4707 41.127 34.6816 40.834L36.1875 38.7773V38.7715C36.3984 38.4785 36.334 38.0684 36.041 37.8574L28.6172 32.4902V19.5527C28.623 19.1895 28.3242 18.8965 27.9668 18.8965Z" fill="#FCB733"/>
<path d="M47.1562 39.4862H43.7695C43.4414 39.4862 43.1309 39.6561 42.9551 39.9373C42.2109 41.1151 41.3437 42.2049 40.3477 43.201C38.6309 44.9178 36.6328 46.2655 34.4121 47.203C32.1094 48.1756 29.666 48.6678 27.1465 48.6678C24.6211 48.6678 22.1777 48.1756 19.8809 47.203C17.6601 46.2655 15.6621 44.9178 13.9453 43.201C12.2285 41.4842 10.8809 39.4862 9.94335 37.2655C8.9707 34.9686 8.47851 32.5252 8.47851 29.9998C8.47851 27.4744 8.9707 25.0369 9.94335 22.7342C10.8809 20.5135 12.2285 18.5155 13.9453 16.7987C15.6621 15.0819 17.6601 13.7342 19.8809 12.7967C22.1777 11.8241 24.6269 11.3319 27.1465 11.3319C29.6719 11.3319 32.1152 11.8241 34.4121 12.7967C36.6328 13.7342 38.6309 15.0819 40.3477 16.7987C41.3437 17.7948 42.2109 18.8846 42.9551 20.0623C43.1309 20.3436 43.4414 20.5135 43.7695 20.5135H47.1562C47.5605 20.5135 47.8184 20.0916 47.6367 19.7342C43.8164 12.1346 36.0703 7.19515 27.4219 7.09554C14.7598 6.93733 4.24218 17.3026 4.21874 29.953C4.19531 42.6268 14.4668 52.91 27.1406 52.91C35.9004 52.91 43.7754 47.953 47.6367 40.2655C47.8184 39.908 47.5547 39.4862 47.1562 39.4862Z" fill="#FCB733"/>
</svg>
