<svg width="153" height="45" viewBox="0 0 153 45" fill="none" xmlns="http://www.w3.org/2000/svg">
<rect width="45" height="45" rx="10" fill="#FCB733"/>
<path d="M27.325 21.14V24.745H14.69V21.14H27.325ZM24.14 35.35C22.3667 35.35 20.71 35.0467 19.17 34.44C17.6533 33.81 16.3233 32.935 15.18 31.815C14.06 30.6717 13.185 29.33 12.555 27.79C11.9483 26.25 11.645 24.57 11.645 22.75C11.645 20.93 11.9483 19.25 12.555 17.71C13.185 16.17 14.06 14.84 15.18 13.72C16.3233 12.5767 17.6533 11.7017 19.17 11.095C20.71 10.465 22.3667 10.15 24.14 10.15C26.2167 10.15 28.095 10.5 29.775 11.2C31.4783 11.9 32.89 12.915 34.01 14.245L31.14 17.045C30.23 16.065 29.215 15.3417 28.095 14.875C26.975 14.385 25.7383 14.14 24.385 14.14C23.195 14.14 22.0983 14.3617 21.095 14.805C20.115 15.225 19.2517 15.82 18.505 16.59C17.7817 17.3367 17.2217 18.235 16.825 19.285C16.4517 20.335 16.265 21.49 16.265 22.75C16.265 24.01 16.4517 25.165 16.825 26.215C17.2217 27.265 17.7817 28.175 18.505 28.945C19.2517 29.6917 20.115 30.2867 21.095 30.73C22.0983 31.15 23.195 31.36 24.385 31.36C25.7383 31.36 26.975 31.1267 28.095 30.66C29.215 30.17 30.23 29.435 31.14 28.455L34.01 31.255C32.89 32.585 31.4783 33.6 29.775 34.3C28.095 35 26.2167 35.35 24.14 35.35Z" fill="black"/>
<path d="M56.56 28.68C55.6 28.68 54.706 28.524 53.878 28.212C53.062 27.888 52.348 27.438 51.736 26.862C51.136 26.274 50.668 25.584 50.332 24.792C49.996 24 49.828 23.136 49.828 22.2C49.828 21.264 49.996 20.4 50.332 19.608C50.668 18.816 51.142 18.132 51.754 17.556C52.366 16.968 53.08 16.518 53.896 16.206C54.712 15.882 55.606 15.72 56.578 15.72C57.61 15.72 58.552 15.9 59.404 16.26C60.256 16.608 60.976 17.13 61.564 17.826L60.052 19.248C59.596 18.756 59.086 18.39 58.522 18.15C57.958 17.898 57.346 17.772 56.686 17.772C56.026 17.772 55.42 17.88 54.868 18.096C54.328 18.312 53.854 18.618 53.446 19.014C53.05 19.41 52.738 19.878 52.51 20.418C52.294 20.958 52.186 21.552 52.186 22.2C52.186 22.848 52.294 23.442 52.51 23.982C52.738 24.522 53.05 24.99 53.446 25.386C53.854 25.782 54.328 26.088 54.868 26.304C55.42 26.52 56.026 26.628 56.686 26.628C57.346 26.628 57.958 26.508 58.522 26.268C59.086 26.016 59.596 25.638 60.052 25.134L61.564 26.574C60.976 27.258 60.256 27.78 59.404 28.14C58.552 28.5 57.604 28.68 56.56 28.68ZM63.131 28.5L68.801 15.9H71.105L76.793 28.5H74.345L69.467 17.142H70.403L65.543 28.5H63.131ZM65.741 25.584L66.371 23.748H73.175L73.805 25.584H65.741ZM80.0032 28.5V15.9H81.9112L87.4372 25.098H86.4112L91.8472 15.9H93.7552L93.7912 28.5H91.5592L91.5412 19.374H92.0092L87.4012 27.06H86.3572L81.6772 19.374H82.2172V28.5H80.0032ZM104.427 28.68C103.443 28.68 102.537 28.518 101.709 28.194C100.881 27.87 100.161 27.42 99.5492 26.844C98.9372 26.256 98.4632 25.572 98.1272 24.792C97.7912 24 97.6232 23.136 97.6232 22.2C97.6232 21.264 97.7912 20.406 98.1272 19.626C98.4632 18.834 98.9372 18.15 99.5492 17.574C100.161 16.986 100.881 16.53 101.709 16.206C102.537 15.882 103.437 15.72 104.409 15.72C105.393 15.72 106.293 15.882 107.109 16.206C107.937 16.53 108.657 16.986 109.269 17.574C109.881 18.15 110.355 18.834 110.691 19.626C111.027 20.406 111.195 21.264 111.195 22.2C111.195 23.136 111.027 24 110.691 24.792C110.355 25.584 109.881 26.268 109.269 26.844C108.657 27.42 107.937 27.87 107.109 28.194C106.293 28.518 105.399 28.68 104.427 28.68ZM104.409 26.628C105.045 26.628 105.633 26.52 106.173 26.304C106.713 26.088 107.181 25.782 107.577 25.386C107.973 24.978 108.279 24.51 108.495 23.982C108.723 23.442 108.837 22.848 108.837 22.2C108.837 21.552 108.723 20.964 108.495 20.436C108.279 19.896 107.973 19.428 107.577 19.032C107.181 18.624 106.713 18.312 106.173 18.096C105.633 17.88 105.045 17.772 104.409 17.772C103.773 17.772 103.185 17.88 102.645 18.096C102.117 18.312 101.649 18.624 101.241 19.032C100.845 19.428 100.533 19.896 100.305 20.436C100.089 20.964 99.9812 21.552 99.9812 22.2C99.9812 22.836 100.089 23.424 100.305 23.964C100.533 24.504 100.845 24.978 101.241 25.386C101.637 25.782 102.105 26.088 102.645 26.304C103.185 26.52 103.773 26.628 104.409 26.628ZM123.376 28.5L119.11 22.362L121 21.192L126.022 28.5H123.376ZM115.042 28.5V15.9H117.346V28.5H115.042ZM116.644 23.19V21.174H120.892V23.19H116.644ZM121.216 22.47L119.074 22.182L123.376 15.9H125.86L121.216 22.47ZM127.058 28.5L132.728 15.9H135.032L140.72 28.5H138.272L133.394 17.142H134.33L129.47 28.5H127.058ZM129.668 25.584L130.298 23.748H137.102L137.732 25.584H129.668ZM145.925 28.5V17.304L146.483 17.88H141.767V15.9H152.423V17.88H147.707L148.247 17.304V28.5H145.925Z" fill="white"/>
</svg>
