<svg width="385" height="55" viewBox="0 0 385 55" fill="none" xmlns="http://www.w3.org/2000/svg">
<path d="M337.358 41.25C339.913 41.25 342.067 43.0624 342.761 45.5469H343.175C342.468 42.8261 340.13 40.8203 337.357 40.8203C334.691 40.8203 332.533 40.3958 332.525 39.8707C333.896 38.848 335.561 38.2422 337.357 38.2422C341.47 38.2422 344.902 41.3909 345.658 45.5469H360.671C360.671 45.5469 362.131 38.6719 368.778 38.6719C371.075 38.6719 372.551 37.1207 373.226 36.0181C373.565 35.463 374.437 33.8757 374.61 33.5577L370.559 8.59375H368.096C367.748 9.61641 367.105 10.3125 366.361 10.3125C365.617 10.3125 364.975 9.61641 364.626 8.59375H359.916C359.25 8.59375 358.707 7.82375 358.707 6.875C358.707 5.92625 359.25 5.15625 359.916 5.15625H364.626C364.974 4.13359 365.617 3.4375 366.361 3.4375C367.105 3.4375 367.747 4.13359 368.096 5.15625H375.1C375.448 4.13359 376.091 3.4375 376.835 3.4375C377.579 3.4375 378.22 4.13359 378.571 5.15625H382.475C382.92 5.15625 383.281 5.92625 383.281 6.875C383.281 7.82375 382.92 8.59375 382.475 8.59375H378.57C378.22 9.61641 377.578 10.3125 376.833 10.3125C376.089 10.3125 375.447 9.61641 375.098 8.59375H373.781L378.335 36.6369C379.504 37.1654 380.245 38.4656 380.522 40.1474L380.915 42.5184C381.863 43.6184 382.475 45.3329 382.475 47.2656C382.475 50.588 380.67 53.2812 378.446 53.2812H376.833C374.609 53.2812 372.805 50.588 372.805 47.2656C372.805 45.1756 373.519 43.3366 374.602 42.258L374.515 41.7321C374.455 41.3703 374.407 41.0137 374.37 40.663L369.692 48.9844H342.762C342.068 51.4688 339.914 53.2812 337.359 53.2812C334.244 53.2812 331.719 50.5871 331.719 47.2656C331.719 43.9441 334.244 41.25 337.358 41.25ZM376.834 6.19438C376.834 5.97695 375.031 5.80078 372.805 5.80078C370.582 5.80078 368.778 5.97695 368.778 6.19438C368.778 6.4118 370.582 6.58797 372.805 6.58797C375.031 6.58797 376.834 6.4118 376.834 6.19438ZM375.554 22.7116C374.288 15.058 373.115 8.88078 372.932 8.9143C372.749 8.94867 373.629 15.1817 374.892 22.8353C376.158 30.4889 377.331 36.6661 377.514 36.6326C377.697 36.5982 376.819 30.3652 375.554 22.7116ZM376.614 41.2672C376.687 41.2612 376.76 41.25 376.834 41.25H378.447C378.477 41.25 378.506 41.256 378.537 41.2569L378.417 40.5419C378.381 40.3153 378.333 40.0907 378.275 39.869C378.122 39.3284 377.896 39.0526 377.412 39.0363C377.249 39.0311 377.065 39.0474 376.834 39.1016C376.389 39.2064 376.42 40.0641 376.614 41.2672ZM379.8 41.6058L379.828 41.6213C379.819 41.6157 379.81 41.6106 379.8 41.6058ZM380.663 47.2656C380.683 43.8745 378.345 41.8928 378.254 42.1274C378.097 42.2632 379.939 44.287 379.894 47.2656C379.94 50.2442 378.095 52.268 378.255 52.4038C378.345 52.6384 380.683 50.6567 380.663 47.2656ZM374.82 47.2656C374.82 48.9242 375.721 50.2734 376.834 50.2734C377.947 50.2734 378.85 48.9242 378.85 47.2656C378.85 45.7497 378.093 44.5053 377.114 44.2999L377.551 46.9485C377.653 47.5698 377.266 48.1602 376.683 48.2694C376.102 48.3785 375.549 47.9652 375.446 47.3455L375.158 45.6036C374.945 46.0797 374.82 46.6503 374.82 47.2656ZM376.032 41.3703C376.01 41.1623 375.983 40.9458 375.956 40.7163C375.664 38.3264 376.888 38.4871 376.51 38.3264C375.88 38.0574 375.246 38.873 375.592 41.5448C375.734 41.4751 375.881 41.4167 376.032 41.3703ZM344.959 45.5452C345.208 45.589 344.651 41.7914 341.482 39.7813C338.34 37.7205 335.188 39.1213 335.35 39.3405C335.379 39.5794 338.313 38.7105 341.089 40.5685C343.918 42.3268 344.767 45.6388 344.959 45.5452ZM337.358 50.2734C338.916 50.2734 340.178 48.9242 340.178 47.2656C340.178 45.607 338.915 44.2578 337.358 44.2578C335.801 44.2578 334.538 45.607 334.538 47.2656C334.538 48.9242 335.801 50.2734 337.358 50.2734Z" fill="url(#paint0_linear_2_74)"/>
<line y1="-1" x2="411" y2="-1" transform="matrix(-1 0 0 1 329 55)" stroke="#FCB733" stroke-width="2" stroke-dasharray="8 8"/>
<defs>
<linearGradient id="paint0_linear_2_74" x1="357.5" y1="3.4375" x2="357.5" y2="53.2812" gradientUnits="userSpaceOnUse">
<stop stop-color="#FCB733"/>
<stop offset="1" stop-color="#FA7729"/>
</linearGradient>
</defs>
</svg>
