<svg width="54" height="54" viewBox="0 0 54 54" fill="none" xmlns="http://www.w3.org/2000/svg">
<path d="M17.595 36H33.75V33.75C33.75 28.7775 37.7775 24.75 42.75 24.75H44.415L40.14 5.76C39.912 4.7657 39.3544 3.87774 38.5579 3.24049C37.7613 2.60324 36.7726 2.25416 35.7525 2.25H27V6.75H35.7525L38.9025 20.8125H38.88C36.4691 21.5391 34.3092 22.9247 32.6435 24.813C30.9778 26.7013 29.8726 29.0173 29.4525 31.5H17.595C17.0543 29.9668 15.9778 28.6807 14.5637 27.8786C13.1497 27.0765 11.4934 26.8124 9.9 27.135C7.245 27.6525 5.1075 29.835 4.6125 32.49C4.42784 33.4661 4.46078 34.471 4.70898 35.433C4.95717 36.3949 5.4145 37.2903 6.04839 38.0552C6.68227 38.8202 7.47708 39.4359 8.37619 39.8585C9.27529 40.2811 10.2565 40.5001 11.25 40.5C14.175 40.5 16.65 38.61 17.595 36ZM11.25 36C10.0125 36 9 34.9875 9 33.75C9 32.5125 10.0125 31.5 11.25 31.5C12.4875 31.5 13.5 32.5125 13.5 33.75C13.5 34.9875 12.4875 36 11.25 36Z" fill="#FCB733"/>
<path d="M42.75 27C39.015 27 36 30.015 36 33.75C36 37.485 39.015 40.5 42.75 40.5C46.485 40.5 49.5 37.485 49.5 33.75C49.5 30.015 46.485 27 42.75 27ZM42.75 36C41.5125 36 40.5 34.9875 40.5 33.75C40.5 32.5125 41.5125 31.5 42.75 31.5C43.9875 31.5 45 32.5125 45 33.75C45 34.9875 43.9875 36 42.75 36ZM24.75 45H15.75L29.25 51.75V47.25H38.25L24.75 40.5V45Z" fill="#FCB733"/>
</svg>
